solid OpenSCAD_Model
  facet normal 2.22045e-16 0 -1
    outer loop
      vertex 1.1966 -10 0.333333
      vertex -10.7694 -10 0.333333
      vertex 1.1966 10 0.333333
    endloop
  endfacet
  facet normal 2.22045e-16 0 -1
    outer loop
      vertex 1.1966 10 0.333333
      vertex -10.7694 -10 0.333333
      vertex -10.7694 10 0.333333
    endloop
  endfacet
  facet normal 0 -1 0
    outer loop
      vertex -1.1966 -10 13.3858
      vertex 1.1966 -10 0.333333
      vertex 1.1966 -10 35.3333
    endloop
  endfacet
  facet normal 0 -1 0
    outer loop
      vertex -1.1966 -10 13.3858
      vertex -10.2743 -10 7.25393
      vertex -10.7694 -10 0.333333
    endloop
  endfacet
  facet normal 0 -1 0
    outer loop
      vertex -1.1966 -10 7.99724
      vertex 1.1966 -10 0.333333
      vertex -1.1966 -10 13.3858
    endloop
  endfacet
  facet normal 0 -1 0
    outer loop
      vertex -10.7694 -10 1.2335
      vertex -10.7694 -10 0.333333
      vertex -10.2743 -10 7.25393
    endloop
  endfacet
  facet normal 0 -1 0
    outer loop
      vertex -15.983 -10 13.933
      vertex -10.7694 -10 1.2335
      vertex -10.2743 -10 7.25393
    endloop
  endfacet
  facet normal 0 -1 0
    outer loop
      vertex -10.7694 -10 0.333333
      vertex 1.1966 -10 0.333333
      vertex -1.1966 -10 5
    endloop
  endfacet
  facet normal 0 -1 0
    outer loop
      vertex -10.7694 -10 0.333333
      vertex -5.63373 -10 5
      vertex -1.1966 -10 13.3858
    endloop
  endfacet
  facet normal 0 -1 0
    outer loop
      vertex -10.7694 -10 0.333333
      vertex -1.1966 -10 5
      vertex -5.63373 -10 5
    endloop
  endfacet
  facet normal 0 -1 0
    outer loop
      vertex -5.63373 -10 5
      vertex -1.1966 -10 7.99724
      vertex -1.1966 -10 13.3858
    endloop
  endfacet
  facet normal 0 -1 0
    outer loop
      vertex -1.1966 -10 5
      vertex 1.1966 -10 0.333333
      vertex -1.1966 -10 7.99724
    endloop
  endfacet
  facet normal 0 -1 0
    outer loop
      vertex -18.8034 -10 10.6332
      vertex -10.7694 -10 1.2335
      vertex -15.983 -10 13.933
    endloop
  endfacet
  facet normal 0 -1 0
    outer loop
      vertex -1.1966 -10 35.3333
      vertex -1.1966 -10 13.3858
      vertex 1.1966 -10 35.3333
    endloop
  endfacet
  facet normal 1 0 2.22045e-16
    outer loop
      vertex 1.1966 0 14.3333
      vertex 1.1966 -10 0.333333
      vertex 1.1966 10 0.333333
    endloop
  endfacet
  facet normal 1 0 2.22045e-16
    outer loop
      vertex 1.1966 1.03956 14.4353
      vertex 1.1966 0 14.3333
      vertex 1.1966 10 0.333333
    endloop
  endfacet
  facet normal 1 0 2.22045e-16
    outer loop
      vertex 1.1966 -1.03956 14.4353
      vertex 1.1966 -10 0.333333
      vertex 1.1966 0 14.3333
    endloop
  endfacet
  facet normal 1 0 2.22045e-16
    outer loop
      vertex 1.1966 -2.03368 14.7368
      vertex 1.1966 -10 0.333333
      vertex 1.1966 -1.03956 14.4353
    endloop
  endfacet
  facet normal 1 0 2.22045e-16
    outer loop
      vertex 1.1966 -2.93893 15.2246
      vertex 1.1966 -10 0.333333
      vertex 1.1966 -2.03368 14.7368
    endloop
  endfacet
  facet normal 1 0 2.22045e-16
    outer loop
      vertex 1.1966 -3.71572 15.8774
      vertex 1.1966 -10 0.333333
      vertex 1.1966 -2.93893 15.2246
    endloop
  endfacet
  facet normal 1 0 2.22045e-16
    outer loop
      vertex 1.1966 -4.75528 20.4421
      vertex 1.1966 -4.33013 21.3333
      vertex 1.1966 -10 35.3333
    endloop
  endfacet
  facet normal 1 0 2.22045e-16
    outer loop
      vertex 1.1966 -4.33013 16.6667
      vertex 1.1966 -10 0.333333
      vertex 1.1966 -3.71572 15.8774
    endloop
  endfacet
  facet normal 1 0 2.22045e-16
    outer loop
      vertex 1.1966 -4.75528 17.5579
      vertex 1.1966 -10 0.333333
      vertex 1.1966 -4.33013 16.6667
    endloop
  endfacet
  facet normal 1 0 2.22045e-16
    outer loop
      vertex 1.1966 -10 35.3333
      vertex 1.1966 -10 0.333333
      vertex 1.1966 -4.75528 17.5579
    endloop
  endfacet
  facet normal 1 0 2.22045e-16
    outer loop
      vertex 1.1966 -10 35.3333
      vertex 1.1966 -4.75528 17.5579
      vertex 1.1966 -4.97261 18.5122
    endloop
  endfacet
  facet normal 1 0 2.22045e-16
    outer loop
      vertex 1.1966 -4.33013 21.3333
      vertex 1.1966 -3.71572 22.1226
      vertex 1.1966 -10 35.3333
    endloop
  endfacet
  facet normal 1 0 2.22045e-16
    outer loop
      vertex 1.1966 -3.71572 22.1226
      vertex 1.1966 -2.93893 22.7754
      vertex 1.1966 -10 35.3333
    endloop
  endfacet
  facet normal 1 0 2.22045e-16
    outer loop
      vertex 1.1966 4.97261 19.4878
      vertex 1.1966 4.97261 18.5122
      vertex 1.1966 10 0.333333
    endloop
  endfacet
  facet normal 1 0 2.22045e-16
    outer loop
      vertex 1.1966 -2.1604 28.8
      vertex 1.1966 -2.13988 28.9823
      vertex 1.1966 -2.25 28.8
    endloop
  endfacet
  facet normal 1 0 2.22045e-16
    outer loop
      vertex 1.1966 -2.13988 28.9823
      vertex 1.1966 -10 35.3333
      vertex 1.1966 -2.25 28.8
    endloop
  endfacet
  facet normal 1 0 2.22045e-16
    outer loop
      vertex 1.1966 -0.915157 30.2518
      vertex 1.1966 0 30.4333
      vertex 1.1966 10 35.3333
    endloop
  endfacet
  facet normal 1 0 2.22045e-16
    outer loop
      vertex 1.1966 -1.67208 29.7385
      vertex 1.1966 -10 35.3333
      vertex 1.1966 -2.13988 28.9823
    endloop
  endfacet
  facet normal 1 0 2.22045e-16
    outer loop
      vertex 1.1966 -0.915157 30.2518
      vertex 1.1966 -10 35.3333
      vertex 1.1966 -1.67208 29.7385
    endloop
  endfacet
  facet normal 1 0 2.22045e-16
    outer loop
      vertex 1.1966 10 35.3333
      vertex 1.1966 -10 35.3333
      vertex 1.1966 -0.915157 30.2518
    endloop
  endfacet
  facet normal 1 0 2.22045e-16
    outer loop
      vertex 1.1966 2.25 28.8
      vertex 1.1966 2.25 23.2
      vertex 1.1966 10 35.3333
    endloop
  endfacet
  facet normal 1 0 2.22045e-16
    outer loop
      vertex 1.1966 10 35.3333
      vertex 1.1966 0.915157 30.2518
      vertex 1.1966 1.67208 29.7385
    endloop
  endfacet
  facet normal 1 0 2.22045e-16
    outer loop
      vertex 1.1966 10 35.3333
      vertex 1.1966 1.67208 29.7385
      vertex 1.1966 2.13988 28.9823
    endloop
  endfacet
  facet normal 1 0 2.22045e-16
    outer loop
      vertex 1.1966 10 35.3333
      vertex 1.1966 2.13988 28.9823
      vertex 1.1966 2.1604 28.8
    endloop
  endfacet
  facet normal 1 0 2.22045e-16
    outer loop
      vertex 1.1966 4.75528 17.5579
      vertex 1.1966 4.33013 16.6667
      vertex 1.1966 10 0.333333
    endloop
  endfacet
  facet normal 1 0 2.22045e-16
    outer loop
      vertex 1.1966 10 35.3333
      vertex 1.1966 2.1604 28.8
      vertex 1.1966 2.25 28.8
    endloop
  endfacet
  facet normal 1 0 2.22045e-16
    outer loop
      vertex 1.1966 2.03368 14.7368
      vertex 1.1966 1.03956 14.4353
      vertex 1.1966 10 0.333333
    endloop
  endfacet
  facet normal 1 0 2.22045e-16
    outer loop
      vertex 1.1966 2.93893 15.2246
      vertex 1.1966 2.03368 14.7368
      vertex 1.1966 10 0.333333
    endloop
  endfacet
  facet normal 1 0 2.22045e-16
    outer loop
      vertex 1.1966 2.15099 23.2
      vertex 1.1966 2.93893 22.7754
      vertex 1.1966 2.25 23.2
    endloop
  endfacet
  facet normal 1 0 2.22045e-16
    outer loop
      vertex 1.1966 10 35.3333
      vertex 1.1966 2.25 23.2
      vertex 1.1966 2.93893 22.7754
    endloop
  endfacet
  facet normal 1 0 2.22045e-16
    outer loop
      vertex 1.1966 10 35.3333
      vertex 1.1966 2.93893 22.7754
      vertex 1.1966 3.71572 22.1226
    endloop
  endfacet
  facet normal 1 0 2.22045e-16
    outer loop
      vertex 1.1966 4.97261 18.5122
      vertex 1.1966 4.75528 17.5579
      vertex 1.1966 10 0.333333
    endloop
  endfacet
  facet normal 1 0 2.22045e-16
    outer loop
      vertex 1.1966 10 35.3333
      vertex 1.1966 3.71572 22.1226
      vertex 1.1966 4.33013 21.3333
    endloop
  endfacet
  facet normal 1 0 2.22045e-16
    outer loop
      vertex 1.1966 10 35.3333
      vertex 1.1966 4.75528 20.4421
      vertex 1.1966 10 0.333333
    endloop
  endfacet
  facet normal 1 0 2.22045e-16
    outer loop
      vertex 1.1966 10 35.3333
      vertex 1.1966 4.33013 21.3333
      vertex 1.1966 4.75528 20.4421
    endloop
  endfacet
  facet normal 1 0 2.22045e-16
    outer loop
      vertex 1.1966 4.75528 20.4421
      vertex 1.1966 4.97261 19.4878
      vertex 1.1966 10 0.333333
    endloop
  endfacet
  facet normal 1 0 2.22045e-16
    outer loop
      vertex 1.1966 4.33013 16.6667
      vertex 1.1966 3.71572 15.8774
      vertex 1.1966 10 0.333333
    endloop
  endfacet
  facet normal 1 0 2.22045e-16
    outer loop
      vertex 1.1966 3.71572 15.8774
      vertex 1.1966 2.93893 15.2246
      vertex 1.1966 10 0.333333
    endloop
  endfacet
  facet normal 1 0 2.22045e-16
    outer loop
      vertex 1.1966 -2.25 23.2
      vertex 1.1966 -2.25 28.8
      vertex 1.1966 -10 35.3333
    endloop
  endfacet
  facet normal 1 0 2.22045e-16
    outer loop
      vertex 1.1966 0 30.4333
      vertex 1.1966 0.915157 30.2518
      vertex 1.1966 10 35.3333
    endloop
  endfacet
  facet normal 1 0 2.22045e-16
    outer loop
      vertex 1.1966 -4.97261 18.5122
      vertex 1.1966 -4.97261 19.4878
      vertex 1.1966 -10 35.3333
    endloop
  endfacet
  facet normal 1 0 2.22045e-16
    outer loop
      vertex 1.1966 -4.97261 19.4878
      vertex 1.1966 -4.75528 20.4421
      vertex 1.1966 -10 35.3333
    endloop
  endfacet
  facet normal 1 0 2.22045e-16
    outer loop
      vertex 1.1966 -2.93893 22.7754
      vertex 1.1966 -2.25 23.2
      vertex 1.1966 -10 35.3333
    endloop
  endfacet
  facet normal 1 0 2.22045e-16
    outer loop
      vertex 1.1966 -2.93893 22.7754
      vertex 1.1966 -2.15099 23.2
      vertex 1.1966 -2.25 23.2
    endloop
  endfacet
  facet normal 0 1 0
    outer loop
      vertex -1.1966 10 35.3333
      vertex 1.1966 10 35.3333
      vertex -1.1966 10 13.3858
    endloop
  endfacet
  facet normal 0 1 0
    outer loop
      vertex -15.983 10 13.933
      vertex -10.7694 10 1.2335
      vertex -18.8034 10 10.6332
    endloop
  endfacet
  facet normal 0 1 0
    outer loop
      vertex -10.2743 10 7.25393
      vertex -10.7694 10 1.2335
      vertex -15.983 10 13.933
    endloop
  endfacet
  facet normal 0 1 0
    outer loop
      vertex -5.63373 10 5
      vertex -10.7694 10 0.333333
      vertex -1.1966 10 13.3858
    endloop
  endfacet
  facet normal 0 1 0
    outer loop
      vertex 1.1966 10 0.333333
      vertex -1.1966 10 13.3858
      vertex 1.1966 10 35.3333
    endloop
  endfacet
  facet normal 0 1 0
    outer loop
      vertex 1.1966 10 0.333333
      vertex -10.7694 10 0.333333
      vertex -5.63373 10 5
    endloop
  endfacet
  facet normal 0 1 0
    outer loop
      vertex 1.1966 10 0.333333
      vertex -5.63373 10 5
      vertex -1.1966 10 5
    endloop
  endfacet
  facet normal 0 1 0
    outer loop
      vertex -1.1966 10 7.99724
      vertex -5.63373 10 5
      vertex -1.1966 10 13.3858
    endloop
  endfacet
  facet normal 0 1 0
    outer loop
      vertex 1.1966 10 0.333333
      vertex -1.1966 10 5
      vertex -1.1966 10 7.99724
    endloop
  endfacet
  facet normal 0 1 0
    outer loop
      vertex 1.1966 10 0.333333
      vertex -1.1966 10 7.99724
      vertex -1.1966 10 13.3858
    endloop
  endfacet
  facet normal 0 1 0
    outer loop
      vertex -1.1966 10 13.3858
      vertex -10.7694 10 0.333333
      vertex -10.7694 10 1.2335
    endloop
  endfacet
  facet normal 0 1 0
    outer loop
      vertex -1.1966 10 13.3858
      vertex -10.7694 10 1.2335
      vertex -10.2743 10 7.25393
    endloop
  endfacet
  facet normal -1 0 -2.22045e-16
    outer loop
      vertex -10.7694 -10 0.333333
      vertex -10.7694 -10 1.2335
      vertex -10.7694 10 0.333333
    endloop
  endfacet
  facet normal -1 0 -2.22045e-16
    outer loop
      vertex -10.7694 10 0.333333
      vertex -10.7694 -10 1.2335
      vertex -10.7694 10 1.2335
    endloop
  endfacet
  facet normal -0.760168 0 -0.649726
    outer loop
      vertex -10.7694 -10 1.2335
      vertex -18.8034 -10 10.6332
      vertex -10.7694 10 1.2335
    endloop
  endfacet
  facet normal -0.760168 0 -0.649726
    outer loop
      vertex -10.7694 10 1.2335
      vertex -18.8034 -10 10.6332
      vertex -18.8034 10 10.6332
    endloop
  endfacet
  facet normal -0.760168 0 0.649726
    outer loop
      vertex -17.808 8.44762 11.7978
      vertex -18.8034 10 10.6332
      vertex -17.808 -8.44762 11.7978
    endloop
  endfacet
  facet normal -0.760168 0 0.649726
    outer loop
      vertex -18.8034 -10 10.6332
      vertex -15.983 -10 13.933
      vertex -17.808 -8.44762 11.7978
    endloop
  endfacet
  facet normal -0.760168 0 0.649726
    outer loop
      vertex -18.8034 -10 10.6332
      vertex -17.808 -8.44762 11.7978
      vertex -18.8034 10 10.6332
    endloop
  endfacet
  facet normal -0.760168 0 0.649726
    outer loop
      vertex -18.8034 10 10.6332
      vertex -17.808 8.44762 11.7978
      vertex -17.756 8.42861 11.8586
    endloop
  endfacet
  facet normal -0.760168 0 0.649726
    outer loop
      vertex -17.756 8.42861 11.8586
      vertex -15.983 7.77956 13.933
      vertex -18.8034 10 10.6332
    endloop
  endfacet
  facet normal -0.760168 0 0.649726
    outer loop
      vertex -18.8034 10 10.6332
      vertex -15.983 7.77956 13.933
      vertex -15.983 10 13.933
    endloop
  endfacet
  facet normal -0.760168 0 0.649726
    outer loop
      vertex -17.808 -8.44762 11.7978
      vertex -15.983 -10 13.933
      vertex -15.983 -7.77956 13.933
    endloop
  endfacet
  facet normal 0.760168 0 0.649726
    outer loop
      vertex -15.983 -10 13.933
      vertex -10.2743 -10 7.25393
      vertex -10.2743 10 7.25393
    endloop
  endfacet
  facet normal 0.760168 0 0.649726
    outer loop
      vertex -15.7556 -8.23609 13.6669
      vertex -15.983 -10 13.933
      vertex -10.2743 10 7.25393
    endloop
  endfacet
  facet normal 0.760168 0 0.649726
    outer loop
      vertex -15.983 10 13.933
      vertex -15.7556 8.23609 13.6669
      vertex -10.2743 10 7.25393
    endloop
  endfacet
  facet normal 0.760168 0 0.649726
    outer loop
      vertex -15.983 10 13.933
      vertex -15.983 7.77956 13.933
      vertex -15.7556 8.23609 13.6669
    endloop
  endfacet
  facet normal 0.760168 0 0.649726
    outer loop
      vertex -15.983 -7.77956 13.933
      vertex -15.983 -10 13.933
      vertex -15.7556 -8.23609 13.6669
    endloop
  endfacet
  facet normal 0.760168 0 0.649726
    outer loop
      vertex -15.7556 8.23609 13.6669
      vertex -15.7556 -8.23609 13.6669
      vertex -10.2743 10 7.25393
    endloop
  endfacet
  facet normal -0.559752 0 0.82866
    outer loop
      vertex -10.2743 10 7.25393
      vertex -10.2743 -10 7.25393
      vertex -1.1966 -10 13.3858
    endloop
  endfacet
  facet normal -0.559752 0 0.82866
    outer loop
      vertex -1.1966 10 13.3858
      vertex -10.2743 10 7.25393
      vertex -1.1966 -10 13.3858
    endloop
  endfacet
  facet normal -1 0 -2.22045e-16
    outer loop
      vertex -1.1966 2.15099 23.2
      vertex -1.1966 2.25 23.2
      vertex -1.1966 2.93893 22.7754
    endloop
  endfacet
  facet normal -1 0 -2.22045e-16
    outer loop
      vertex -1.1966 0.915157 30.2518
      vertex -1.1966 -10 35.3333
      vertex -1.1966 10 35.3333
    endloop
  endfacet
  facet normal -1 0 -2.22045e-16
    outer loop
      vertex -1.1966 -10 13.3858
      vertex -1.1966 -1.03956 14.4353
      vertex -1.1966 0 14.3333
    endloop
  endfacet
  facet normal -1 0 -2.22045e-16
    outer loop
      vertex -1.1966 -10 13.3858
      vertex -1.1966 0 14.3333
      vertex -1.1966 10 13.3858
    endloop
  endfacet
  facet normal -1 0 -2.22045e-16
    outer loop
      vertex -1.1966 -4.33013 21.3333
      vertex -1.1966 -10 35.3333
      vertex -1.1966 -3.71572 22.1226
    endloop
  endfacet
  facet normal -1 0 -2.22045e-16
    outer loop
      vertex -1.1966 4.97261 19.4878
      vertex -1.1966 10 13.3858
      vertex -1.1966 4.97261 18.5122
    endloop
  endfacet
  facet normal -1 0 -2.22045e-16
    outer loop
      vertex -1.1966 -3.71572 22.1226
      vertex -1.1966 -10 35.3333
      vertex -1.1966 -2.93893 22.7754
    endloop
  endfacet
  facet normal -1 0 -2.22045e-16
    outer loop
      vertex -1.1966 1.03956 14.4353
      vertex -1.1966 2.03368 14.7368
      vertex -1.1966 10 13.3858
    endloop
  endfacet
  facet normal -1 0 -2.22045e-16
    outer loop
      vertex -1.1966 -2.93893 22.7754
      vertex -1.1966 -10 35.3333
      vertex -1.1966 -2.25 23.2
    endloop
  endfacet
  facet normal -1 0 -2.22045e-16
    outer loop
      vertex -1.1966 2.03368 14.7368
      vertex -1.1966 2.93893 15.2246
      vertex -1.1966 10 13.3858
    endloop
  endfacet
  facet normal -1 0 -2.22045e-16
    outer loop
      vertex -1.1966 2.93893 15.2246
      vertex -1.1966 3.71572 15.8774
      vertex -1.1966 10 13.3858
    endloop
  endfacet
  facet normal -1 0 -2.22045e-16
    outer loop
      vertex -1.1966 3.71572 15.8774
      vertex -1.1966 4.33013 16.6667
      vertex -1.1966 10 13.3858
    endloop
  endfacet
  facet normal -1 0 -2.22045e-16
    outer loop
      vertex -1.1966 4.33013 16.6667
      vertex -1.1966 4.75528 17.5579
      vertex -1.1966 10 13.3858
    endloop
  endfacet
  facet normal -1 0 -2.22045e-16
    outer loop
      vertex -1.1966 4.75528 17.5579
      vertex -1.1966 4.97261 18.5122
      vertex -1.1966 10 13.3858
    endloop
  endfacet
  facet normal -1 0 -2.22045e-16
    outer loop
      vertex -1.1966 10 13.3858
      vertex -1.1966 4.97261 19.4878
      vertex -1.1966 10 35.3333
    endloop
  endfacet
  facet normal -1 0 -2.22045e-16
    outer loop
      vertex -1.1966 4.97261 19.4878
      vertex -1.1966 4.75528 20.4421
      vertex -1.1966 10 35.3333
    endloop
  endfacet
  facet normal -1 0 -2.22045e-16
    outer loop
      vertex -1.1966 2.25 28.8
      vertex -1.1966 2.93893 22.7754
      vertex -1.1966 2.25 23.2
    endloop
  endfacet
  facet normal -1 0 -2.22045e-16
    outer loop
      vertex -1.1966 4.75528 20.4421
      vertex -1.1966 4.33013 21.3333
      vertex -1.1966 10 35.3333
    endloop
  endfacet
  facet normal -1 0 -2.22045e-16
    outer loop
      vertex -1.1966 4.33013 21.3333
      vertex -1.1966 3.71572 22.1226
      vertex -1.1966 10 35.3333
    endloop
  endfacet
  facet normal -1 0 -2.22045e-16
    outer loop
      vertex -1.1966 2.25 28.8
      vertex -1.1966 3.71572 22.1226
      vertex -1.1966 2.93893 22.7754
    endloop
  endfacet
  facet normal -1 0 -2.22045e-16
    outer loop
      vertex -1.1966 3.71572 22.1226
      vertex -1.1966 2.25 28.8
      vertex -1.1966 10 35.3333
    endloop
  endfacet
  facet normal -1 0 -2.22045e-16
    outer loop
      vertex -1.1966 -2.25 23.2
      vertex -1.1966 -10 35.3333
      vertex -1.1966 -2.25 28.8
    endloop
  endfacet
  facet normal -1 0 -2.22045e-16
    outer loop
      vertex -1.1966 2.13988 28.9823
      vertex -1.1966 2.25 28.8
      vertex -1.1966 2.1604 28.8
    endloop
  endfacet
  facet normal -1 0 -2.22045e-16
    outer loop
      vertex -1.1966 0 30.4333
      vertex -1.1966 -10 35.3333
      vertex -1.1966 0.915157 30.2518
    endloop
  endfacet
  facet normal -1 0 -2.22045e-16
    outer loop
      vertex -1.1966 2.25 28.8
      vertex -1.1966 2.13988 28.9823
      vertex -1.1966 10 35.3333
    endloop
  endfacet
  facet normal -1 0 -2.22045e-16
    outer loop
      vertex -1.1966 -0.915157 30.2518
      vertex -1.1966 -10 35.3333
      vertex -1.1966 0 30.4333
    endloop
  endfacet
  facet normal -1 0 -2.22045e-16
    outer loop
      vertex -1.1966 2.13988 28.9823
      vertex -1.1966 1.67208 29.7385
      vertex -1.1966 10 35.3333
    endloop
  endfacet
  facet normal -1 0 -2.22045e-16
    outer loop
      vertex -1.1966 1.67208 29.7385
      vertex -1.1966 0.915157 30.2518
      vertex -1.1966 10 35.3333
    endloop
  endfacet
  facet normal -1 0 -2.22045e-16
    outer loop
      vertex -1.1966 -1.67208 29.7385
      vertex -1.1966 -10 35.3333
      vertex -1.1966 -0.915157 30.2518
    endloop
  endfacet
  facet normal -1 0 -2.22045e-16
    outer loop
      vertex -1.1966 -2.13988 28.9823
      vertex -1.1966 -10 35.3333
      vertex -1.1966 -1.67208 29.7385
    endloop
  endfacet
  facet normal -1 0 -2.22045e-16
    outer loop
      vertex -1.1966 -2.1604 28.8
      vertex -1.1966 -10 35.3333
      vertex -1.1966 -2.13988 28.9823
    endloop
  endfacet
  facet normal -1 0 -2.22045e-16
    outer loop
      vertex -1.1966 -2.25 28.8
      vertex -1.1966 -10 35.3333
      vertex -1.1966 -2.1604 28.8
    endloop
  endfacet
  facet normal -1 0 -2.22045e-16
    outer loop
      vertex -1.1966 -2.93893 22.7754
      vertex -1.1966 -2.25 23.2
      vertex -1.1966 -2.15099 23.2
    endloop
  endfacet
  facet normal -1 0 -2.22045e-16
    outer loop
      vertex -1.1966 -10 13.3858
      vertex -1.1966 -10 35.3333
      vertex -1.1966 -4.33013 21.3333
    endloop
  endfacet
  facet normal -1 0 -2.22045e-16
    outer loop
      vertex -1.1966 -10 13.3858
      vertex -1.1966 -4.33013 21.3333
      vertex -1.1966 -4.75528 20.4421
    endloop
  endfacet
  facet normal -1 0 -2.22045e-16
    outer loop
      vertex -1.1966 -10 13.3858
      vertex -1.1966 -4.75528 20.4421
      vertex -1.1966 -4.97261 19.4878
    endloop
  endfacet
  facet normal -1 0 -2.22045e-16
    outer loop
      vertex -1.1966 -10 13.3858
      vertex -1.1966 -4.97261 19.4878
      vertex -1.1966 -4.97261 18.5122
    endloop
  endfacet
  facet normal -1 0 -2.22045e-16
    outer loop
      vertex -1.1966 -10 13.3858
      vertex -1.1966 -4.97261 18.5122
      vertex -1.1966 -4.75528 17.5579
    endloop
  endfacet
  facet normal -1 0 -2.22045e-16
    outer loop
      vertex -1.1966 -10 13.3858
      vertex -1.1966 -4.75528 17.5579
      vertex -1.1966 -4.33013 16.6667
    endloop
  endfacet
  facet normal -1 0 -2.22045e-16
    outer loop
      vertex -1.1966 -10 13.3858
      vertex -1.1966 -4.33013 16.6667
      vertex -1.1966 -3.71572 15.8774
    endloop
  endfacet
  facet normal -1 0 -2.22045e-16
    outer loop
      vertex -1.1966 -10 13.3858
      vertex -1.1966 -3.71572 15.8774
      vertex -1.1966 -2.93893 15.2246
    endloop
  endfacet
  facet normal -1 0 -2.22045e-16
    outer loop
      vertex -1.1966 -10 13.3858
      vertex -1.1966 -2.93893 15.2246
      vertex -1.1966 -2.03368 14.7368
    endloop
  endfacet
  facet normal -1 0 -2.22045e-16
    outer loop
      vertex -1.1966 -10 13.3858
      vertex -1.1966 -2.03368 14.7368
      vertex -1.1966 -1.03956 14.4353
    endloop
  endfacet
  facet normal -1 0 -2.22045e-16
    outer loop
      vertex -1.1966 1.03956 14.4353
      vertex -1.1966 10 13.3858
      vertex -1.1966 0 14.3333
    endloop
  endfacet
  facet normal -2.22045e-16 0 1
    outer loop
      vertex -1.1966 -10 35.3333
      vertex 1.1966 -10 35.3333
      vertex 1.1966 10 35.3333
    endloop
  endfacet
  facet normal -2.22045e-16 0 1
    outer loop
      vertex -1.1966 10 35.3333
      vertex -1.1966 -10 35.3333
      vertex 1.1966 10 35.3333
    endloop
  endfacet
  facet normal -2.22045e-16 0 1
    outer loop
      vertex -5.63373 -10 5
      vertex -1.1966 -10 5
      vertex -1.1966 10 5
    endloop
  endfacet
  facet normal -2.22045e-16 0 1
    outer loop
      vertex -5.63373 10 5
      vertex -5.63373 -10 5
      vertex -1.1966 10 5
    endloop
  endfacet
  facet normal -1 0 -2.22045e-16
    outer loop
      vertex -1.1966 -10 5
      vertex -1.1966 -10 7.99724
      vertex -1.1966 10 5
    endloop
  endfacet
  facet normal -1 0 -2.22045e-16
    outer loop
      vertex -1.1966 10 5
      vertex -1.1966 -10 7.99724
      vertex -1.1966 10 7.99724
    endloop
  endfacet
  facet normal 0.559752 0 -0.82866
    outer loop
      vertex -5.63373 -10 5
      vertex -5.63373 10 5
      vertex -1.1966 -10 7.99724
    endloop
  endfacet
  facet normal 0.559752 0 -0.82866
    outer loop
      vertex -1.1966 -10 7.99724
      vertex -5.63373 10 5
      vertex -1.1966 10 7.99724
    endloop
  endfacet
  facet normal -2.20984e-16 0.0976287 0.995223
    outer loop
      vertex -1.1966 0 14.3333
      vertex -1.1966 -1.03956 14.4353
      vertex 1.1966 -1.03956 14.4353
    endloop
  endfacet
  facet normal -2.20984e-16 0.0976287 0.995223
    outer loop
      vertex 1.1966 0 14.3333
      vertex -1.1966 0 14.3333
      vertex 1.1966 -1.03956 14.4353
    endloop
  endfacet
  facet normal -2.20984e-16 -0.0976287 0.995223
    outer loop
      vertex 1.1966 1.03956 14.4353
      vertex -1.1966 1.03956 14.4353
      vertex -1.1966 0 14.3333
    endloop
  endfacet
  facet normal -2.20984e-16 -0.0976287 0.995223
    outer loop
      vertex 1.1966 0 14.3333
      vertex 1.1966 1.03956 14.4353
      vertex -1.1966 0 14.3333
    endloop
  endfacet
  facet normal -2.12489e-16 -0.290207 0.956964
    outer loop
      vertex 1.1966 2.03368 14.7368
      vertex -1.1966 2.03368 14.7368
      vertex -1.1966 1.03956 14.4353
    endloop
  endfacet
  facet normal -2.12489e-16 -0.290207 0.956964
    outer loop
      vertex 1.1966 1.03956 14.4353
      vertex 1.1966 2.03368 14.7368
      vertex -1.1966 1.03956 14.4353
    endloop
  endfacet
  facet normal -1.95471e-16 -0.474372 0.880325
    outer loop
      vertex 1.1966 2.93893 15.2246
      vertex -1.1966 2.93893 15.2246
      vertex -1.1966 2.03368 14.7368
    endloop
  endfacet
  facet normal -1.95471e-16 -0.474372 0.880325
    outer loop
      vertex 1.1966 2.03368 14.7368
      vertex 1.1966 2.93893 15.2246
      vertex -1.1966 2.03368 14.7368
    endloop
  endfacet
  facet normal -1.69989e-16 -0.643362 0.765562
    outer loop
      vertex 1.1966 3.71572 15.8774
      vertex -1.1966 3.71572 15.8774
      vertex -1.1966 2.93893 15.2246
    endloop
  endfacet
  facet normal -1.69989e-16 -0.643362 0.765562
    outer loop
      vertex 1.1966 2.93893 15.2246
      vertex 1.1966 3.71572 15.8774
      vertex -1.1966 2.93893 15.2246
    endloop
  endfacet
  facet normal -1.36394e-16 -0.789099 0.614265
    outer loop
      vertex 1.1966 4.33013 16.6667
      vertex -1.1966 4.33013 16.6667
      vertex -1.1966 3.71572 15.8774
    endloop
  endfacet
  facet normal -1.36394e-16 -0.789099 0.614265
    outer loop
      vertex 1.1966 3.71572 15.8774
      vertex 1.1966 4.33013 16.6667
      vertex -1.1966 3.71572 15.8774
    endloop
  endfacet
  facet normal -9.56017e-17 -0.902566 0.430552
    outer loop
      vertex 1.1966 4.75528 17.5579
      vertex -1.1966 4.75528 17.5579
      vertex -1.1966 4.33013 16.6667
    endloop
  endfacet
  facet normal -9.56017e-17 -0.902566 0.430552
    outer loop
      vertex 1.1966 4.33013 16.6667
      vertex 1.1966 4.75528 17.5579
      vertex -1.1966 4.33013 16.6667
    endloop
  endfacet
  facet normal -4.93058e-17 -0.975034 0.222054
    outer loop
      vertex 1.1966 4.97261 18.5122
      vertex -1.1966 4.97261 18.5122
      vertex -1.1966 4.75528 17.5579
    endloop
  endfacet
  facet normal -4.93058e-17 -0.975034 0.222054
    outer loop
      vertex 1.1966 4.75528 17.5579
      vertex 1.1966 4.97261 18.5122
      vertex -1.1966 4.75528 17.5579
    endloop
  endfacet
  facet normal 0 -1 0
    outer loop
      vertex 1.1966 4.97261 19.4878
      vertex -1.1966 4.97261 19.4878
      vertex -1.1966 4.97261 18.5122
    endloop
  endfacet
  facet normal 0 -1 0
    outer loop
      vertex 1.1966 4.97261 18.5122
      vertex 1.1966 4.97261 19.4878
      vertex -1.1966 4.97261 18.5122
    endloop
  endfacet
  facet normal 4.93058e-17 -0.975034 -0.222054
    outer loop
      vertex 1.1966 4.75528 20.4421
      vertex -1.1966 4.75528 20.4421
      vertex -1.1966 4.97261 19.4878
    endloop
  endfacet
  facet normal 4.93058e-17 -0.975034 -0.222054
    outer loop
      vertex 1.1966 4.97261 19.4878
      vertex 1.1966 4.75528 20.4421
      vertex -1.1966 4.97261 19.4878
    endloop
  endfacet
  facet normal 9.56017e-17 -0.902566 -0.430552
    outer loop
      vertex 1.1966 4.33013 21.3333
      vertex -1.1966 4.33013 21.3333
      vertex -1.1966 4.75528 20.4421
    endloop
  endfacet
  facet normal 9.56017e-17 -0.902566 -0.430552
    outer loop
      vertex 1.1966 4.75528 20.4421
      vertex 1.1966 4.33013 21.3333
      vertex -1.1966 4.75528 20.4421
    endloop
  endfacet
  facet normal 1.36394e-16 -0.789099 -0.614265
    outer loop
      vertex 1.1966 3.71572 22.1226
      vertex -1.1966 3.71572 22.1226
      vertex -1.1966 4.33013 21.3333
    endloop
  endfacet
  facet normal 1.36394e-16 -0.789099 -0.614265
    outer loop
      vertex 1.1966 4.33013 21.3333
      vertex 1.1966 3.71572 22.1226
      vertex -1.1966 4.33013 21.3333
    endloop
  endfacet
  facet normal 1.69989e-16 -0.643362 -0.765562
    outer loop
      vertex -1.1966 2.93893 22.7754
      vertex -1.1966 3.71572 22.1226
      vertex 1.1966 2.93893 22.7754
    endloop
  endfacet
  facet normal 1.69989e-16 -0.643362 -0.765562
    outer loop
      vertex 1.1966 2.93893 22.7754
      vertex -1.1966 3.71572 22.1226
      vertex 1.1966 3.71572 22.1226
    endloop
  endfacet
  facet normal 1.95471e-16 -0.474372 -0.880325
    outer loop
      vertex -1.1966 2.15099 23.2
      vertex -1.1966 2.93893 22.7754
      vertex 1.1966 2.15099 23.2
    endloop
  endfacet
  facet normal 1.95471e-16 -0.474372 -0.880325
    outer loop
      vertex 1.1966 2.15099 23.2
      vertex -1.1966 2.93893 22.7754
      vertex 1.1966 2.93893 22.7754
    endloop
  endfacet
  facet normal -2.22045e-16 0 1
    outer loop
      vertex 1.1966 2.25 23.2
      vertex -1.1966 2.25 23.2
      vertex -1.1966 2.15099 23.2
    endloop
  endfacet
  facet normal -2.22045e-16 0 1
    outer loop
      vertex 1.1966 2.15099 23.2
      vertex 1.1966 2.25 23.2
      vertex -1.1966 2.15099 23.2
    endloop
  endfacet
  facet normal 0 -1 0
    outer loop
      vertex 1.1966 2.25 28.8
      vertex -1.1966 2.25 28.8
      vertex -1.1966 2.25 23.2
    endloop
  endfacet
  facet normal 0 -1 0
    outer loop
      vertex 1.1966 2.25 23.2
      vertex 1.1966 2.25 28.8
      vertex -1.1966 2.25 23.2
    endloop
  endfacet
  facet normal 2.22045e-16 0 -1
    outer loop
      vertex -1.1966 2.25 28.8
      vertex 1.1966 2.25 28.8
      vertex -1.1966 2.1604 28.8
    endloop
  endfacet
  facet normal 2.22045e-16 0 -1
    outer loop
      vertex -1.1966 2.1604 28.8
      vertex 1.1966 2.25 28.8
      vertex 1.1966 2.1604 28.8
    endloop
  endfacet
  facet normal 2.48479e-17 -0.993719 -0.111905
    outer loop
      vertex 1.1966 2.13988 28.9823
      vertex -1.1966 2.13988 28.9823
      vertex -1.1966 2.1604 28.8
    endloop
  endfacet
  facet normal 2.48479e-17 -0.993719 -0.111905
    outer loop
      vertex 1.1966 2.1604 28.8
      vertex 1.1966 2.13988 28.9823
      vertex -1.1966 2.1604 28.8
    endloop
  endfacet
  facet normal 1.16812e-16 -0.85044 -0.526073
    outer loop
      vertex 1.1966 1.67208 29.7385
      vertex -1.1966 1.67208 29.7385
      vertex -1.1966 2.13988 28.9823
    endloop
  endfacet
  facet normal 1.16812e-16 -0.85044 -0.526073
    outer loop
      vertex 1.1966 2.13988 28.9823
      vertex 1.1966 1.67208 29.7385
      vertex -1.1966 2.13988 28.9823
    endloop
  endfacet
  facet normal 1.83776e-16 -0.561238 -0.827655
    outer loop
      vertex -1.1966 0.915157 30.2518
      vertex -1.1966 1.67208 29.7385
      vertex 1.1966 0.915157 30.2518
    endloop
  endfacet
  facet normal 1.83776e-16 -0.561238 -0.827655
    outer loop
      vertex 1.1966 0.915157 30.2518
      vertex -1.1966 1.67208 29.7385
      vertex 1.1966 1.67208 29.7385
    endloop
  endfacet
  facet normal 2.178e-16 -0.194594 -0.980884
    outer loop
      vertex -1.1966 0 30.4333
      vertex -1.1966 0.915157 30.2518
      vertex 1.1966 0 30.4333
    endloop
  endfacet
  facet normal 2.178e-16 -0.194594 -0.980884
    outer loop
      vertex 1.1966 0 30.4333
      vertex -1.1966 0.915157 30.2518
      vertex 1.1966 0.915157 30.2518
    endloop
  endfacet
  facet normal 2.178e-16 0.194594 -0.980884
    outer loop
      vertex -1.1966 0 30.4333
      vertex 1.1966 0 30.4333
      vertex -1.1966 -0.915157 30.2518
    endloop
  endfacet
  facet normal 2.178e-16 0.194594 -0.980884
    outer loop
      vertex -1.1966 -0.915157 30.2518
      vertex 1.1966 0 30.4333
      vertex 1.1966 -0.915157 30.2518
    endloop
  endfacet
  facet normal 1.83776e-16 0.561238 -0.827655
    outer loop
      vertex -1.1966 -0.915157 30.2518
      vertex 1.1966 -0.915157 30.2518
      vertex -1.1966 -1.67208 29.7385
    endloop
  endfacet
  facet normal 1.83776e-16 0.561238 -0.827655
    outer loop
      vertex -1.1966 -1.67208 29.7385
      vertex 1.1966 -0.915157 30.2518
      vertex 1.1966 -1.67208 29.7385
    endloop
  endfacet
  facet normal 1.16812e-16 0.85044 -0.526073
    outer loop
      vertex -1.1966 -1.67208 29.7385
      vertex 1.1966 -1.67208 29.7385
      vertex -1.1966 -2.13988 28.9823
    endloop
  endfacet
  facet normal 1.16812e-16 0.85044 -0.526073
    outer loop
      vertex -1.1966 -2.13988 28.9823
      vertex 1.1966 -1.67208 29.7385
      vertex 1.1966 -2.13988 28.9823
    endloop
  endfacet
  facet normal 2.48479e-17 0.993719 -0.111905
    outer loop
      vertex -1.1966 -2.13988 28.9823
      vertex 1.1966 -2.13988 28.9823
      vertex -1.1966 -2.1604 28.8
    endloop
  endfacet
  facet normal 2.48479e-17 0.993719 -0.111905
    outer loop
      vertex -1.1966 -2.1604 28.8
      vertex 1.1966 -2.13988 28.9823
      vertex 1.1966 -2.1604 28.8
    endloop
  endfacet
  facet normal 2.22045e-16 0 -1
    outer loop
      vertex -1.1966 -2.1604 28.8
      vertex 1.1966 -2.1604 28.8
      vertex -1.1966 -2.25 28.8
    endloop
  endfacet
  facet normal 2.22045e-16 0 -1
    outer loop
      vertex -1.1966 -2.25 28.8
      vertex 1.1966 -2.1604 28.8
      vertex 1.1966 -2.25 28.8
    endloop
  endfacet
  facet normal 0 1 0
    outer loop
      vertex -1.1966 -2.25 28.8
      vertex 1.1966 -2.25 28.8
      vertex -1.1966 -2.25 23.2
    endloop
  endfacet
  facet normal 0 1 0
    outer loop
      vertex -1.1966 -2.25 23.2
      vertex 1.1966 -2.25 28.8
      vertex 1.1966 -2.25 23.2
    endloop
  endfacet
  facet normal -2.22045e-16 0 1
    outer loop
      vertex 1.1966 -2.15099 23.2
      vertex -1.1966 -2.15099 23.2
      vertex -1.1966 -2.25 23.2
    endloop
  endfacet
  facet normal -2.22045e-16 0 1
    outer loop
      vertex 1.1966 -2.25 23.2
      vertex 1.1966 -2.15099 23.2
      vertex -1.1966 -2.25 23.2
    endloop
  endfacet
  facet normal 1.95471e-16 0.474372 -0.880325
    outer loop
      vertex -1.1966 -2.15099 23.2
      vertex 1.1966 -2.15099 23.2
      vertex -1.1966 -2.93893 22.7754
    endloop
  endfacet
  facet normal 1.95471e-16 0.474372 -0.880325
    outer loop
      vertex -1.1966 -2.93893 22.7754
      vertex 1.1966 -2.15099 23.2
      vertex 1.1966 -2.93893 22.7754
    endloop
  endfacet
  facet normal 1.69989e-16 0.643362 -0.765562
    outer loop
      vertex -1.1966 -2.93893 22.7754
      vertex 1.1966 -2.93893 22.7754
      vertex -1.1966 -3.71572 22.1226
    endloop
  endfacet
  facet normal 1.69989e-16 0.643362 -0.765562
    outer loop
      vertex -1.1966 -3.71572 22.1226
      vertex 1.1966 -2.93893 22.7754
      vertex 1.1966 -3.71572 22.1226
    endloop
  endfacet
  facet normal 1.36394e-16 0.789099 -0.614265
    outer loop
      vertex -1.1966 -3.71572 22.1226
      vertex 1.1966 -3.71572 22.1226
      vertex -1.1966 -4.33013 21.3333
    endloop
  endfacet
  facet normal 1.36394e-16 0.789099 -0.614265
    outer loop
      vertex -1.1966 -4.33013 21.3333
      vertex 1.1966 -3.71572 22.1226
      vertex 1.1966 -4.33013 21.3333
    endloop
  endfacet
  facet normal 9.56017e-17 0.902566 -0.430552
    outer loop
      vertex -1.1966 -4.33013 21.3333
      vertex 1.1966 -4.33013 21.3333
      vertex -1.1966 -4.75528 20.4421
    endloop
  endfacet
  facet normal 9.56017e-17 0.902566 -0.430552
    outer loop
      vertex -1.1966 -4.75528 20.4421
      vertex 1.1966 -4.33013 21.3333
      vertex 1.1966 -4.75528 20.4421
    endloop
  endfacet
  facet normal 4.93058e-17 0.975034 -0.222054
    outer loop
      vertex -1.1966 -4.75528 20.4421
      vertex 1.1966 -4.75528 20.4421
      vertex -1.1966 -4.97261 19.4878
    endloop
  endfacet
  facet normal 4.93058e-17 0.975034 -0.222054
    outer loop
      vertex -1.1966 -4.97261 19.4878
      vertex 1.1966 -4.75528 20.4421
      vertex 1.1966 -4.97261 19.4878
    endloop
  endfacet
  facet normal 0 1 0
    outer loop
      vertex -1.1966 -4.97261 19.4878
      vertex 1.1966 -4.97261 19.4878
      vertex -1.1966 -4.97261 18.5122
    endloop
  endfacet
  facet normal 0 1 0
    outer loop
      vertex -1.1966 -4.97261 18.5122
      vertex 1.1966 -4.97261 19.4878
      vertex 1.1966 -4.97261 18.5122
    endloop
  endfacet
  facet normal -4.93058e-17 0.975034 0.222054
    outer loop
      vertex -1.1966 -4.97261 18.5122
      vertex 1.1966 -4.97261 18.5122
      vertex -1.1966 -4.75528 17.5579
    endloop
  endfacet
  facet normal -4.93058e-17 0.975034 0.222054
    outer loop
      vertex -1.1966 -4.75528 17.5579
      vertex 1.1966 -4.97261 18.5122
      vertex 1.1966 -4.75528 17.5579
    endloop
  endfacet
  facet normal -9.56017e-17 0.902566 0.430552
    outer loop
      vertex -1.1966 -4.75528 17.5579
      vertex 1.1966 -4.75528 17.5579
      vertex -1.1966 -4.33013 16.6667
    endloop
  endfacet
  facet normal -9.56017e-17 0.902566 0.430552
    outer loop
      vertex -1.1966 -4.33013 16.6667
      vertex 1.1966 -4.75528 17.5579
      vertex 1.1966 -4.33013 16.6667
    endloop
  endfacet
  facet normal -1.36394e-16 0.789099 0.614265
    outer loop
      vertex -1.1966 -4.33013 16.6667
      vertex 1.1966 -4.33013 16.6667
      vertex -1.1966 -3.71572 15.8774
    endloop
  endfacet
  facet normal -1.36394e-16 0.789099 0.614265
    outer loop
      vertex -1.1966 -3.71572 15.8774
      vertex 1.1966 -4.33013 16.6667
      vertex 1.1966 -3.71572 15.8774
    endloop
  endfacet
  facet normal -1.69989e-16 0.643362 0.765562
    outer loop
      vertex -1.1966 -2.93893 15.2246
      vertex -1.1966 -3.71572 15.8774
      vertex 1.1966 -3.71572 15.8774
    endloop
  endfacet
  facet normal -1.69989e-16 0.643362 0.765562
    outer loop
      vertex 1.1966 -2.93893 15.2246
      vertex -1.1966 -2.93893 15.2246
      vertex 1.1966 -3.71572 15.8774
    endloop
  endfacet
  facet normal -1.95471e-16 0.474372 0.880325
    outer loop
      vertex -1.1966 -2.03368 14.7368
      vertex -1.1966 -2.93893 15.2246
      vertex 1.1966 -2.93893 15.2246
    endloop
  endfacet
  facet normal -1.95471e-16 0.474372 0.880325
    outer loop
      vertex 1.1966 -2.03368 14.7368
      vertex -1.1966 -2.03368 14.7368
      vertex 1.1966 -2.93893 15.2246
    endloop
  endfacet
  facet normal -2.12489e-16 0.290207 0.956964
    outer loop
      vertex -1.1966 -1.03956 14.4353
      vertex -1.1966 -2.03368 14.7368
      vertex 1.1966 -2.03368 14.7368
    endloop
  endfacet
  facet normal -2.12489e-16 0.290207 0.956964
    outer loop
      vertex 1.1966 -1.03956 14.4353
      vertex -1.1966 -1.03956 14.4353
      vertex 1.1966 -2.03368 14.7368
    endloop
  endfacet
  facet normal -0.499249 0.608288 0.617038
    outer loop
      vertex -15.983 7.77956 13.933
      vertex -17.756 8.42861 11.8586
      vertex -17.6632 0 20.2428
    endloop
  endfacet
  facet normal -0.499249 0.608288 0.617038
    outer loop
      vertex -15.7556 8.23609 13.6669
      vertex -15.983 7.77956 13.933
      vertex -6.33431 0 29.409
    endloop
  endfacet
  facet normal -0.499249 0.608288 0.617038
    outer loop
      vertex -6.33431 0 29.409
      vertex -15.983 7.77956 13.933
      vertex -17.6632 0 20.2428
    endloop
  endfacet
  facet normal -0.499249 0.608288 0.617038
    outer loop
      vertex -17.756 8.42861 11.8586
      vertex -17.808 8.44762 11.7978
      vertex -17.99 0.285714 19.6967
    endloop
  endfacet
  facet normal -0.499249 0.608288 0.617038
    outer loop
      vertex -17.6632 0 20.2428
      vertex -17.756 8.42861 11.8586
      vertex -17.99 0.285714 19.6967
    endloop
  endfacet
  facet normal -0.999734 0 -0.0230467
    outer loop
      vertex -17.808 -8.44762 11.7978
      vertex -17.99 -0.285714 19.6967
      vertex -17.808 8.44762 11.7978
    endloop
  endfacet
  facet normal -0.999734 0 -0.0230467
    outer loop
      vertex -17.808 8.44762 11.7978
      vertex -17.99 -0.285714 19.6967
      vertex -17.99 0.285714 19.6967
    endloop
  endfacet
  facet normal -0.499249 -0.608288 0.617038
    outer loop
      vertex -17.99 -0.285714 19.6967
      vertex -17.808 -8.44762 11.7978
      vertex -15.983 -7.77956 13.933
    endloop
  endfacet
  facet normal -0.499249 -0.608288 0.617038
    outer loop
      vertex -15.7556 -8.23609 13.6669
      vertex -17.99 -0.285714 19.6967
      vertex -15.983 -7.77956 13.933
    endloop
  endfacet
  facet normal -0.499249 -0.608288 0.617038
    outer loop
      vertex -15.7556 -8.23609 13.6669
      vertex -6.33431 0 29.409
      vertex -17.99 -0.285714 19.6967
    endloop
  endfacet
  facet normal 0.858069 0 -0.513534
    outer loop
      vertex -6.33431 0 29.409
      vertex -15.7556 -8.23609 13.6669
      vertex -15.7556 8.23609 13.6669
    endloop
  endfacet
  facet normal -0.499248 -0.608288 0.617038
    outer loop
      vertex -17.6632 0 20.2428
      vertex -17.99 -0.285714 19.6967
      vertex -6.33431 0 29.409
    endloop
  endfacet
  facet normal -0.858069 0 0.513534
    outer loop
      vertex -17.99 0.285714 19.6967
      vertex -17.99 -0.285714 19.6967
      vertex -17.6632 0 20.2428
    endloop
  endfacet
endsolid OpenSCAD_Model
