solid OpenSCAD_Model
  facet normal -1 0 0
    outer loop
      vertex -40 -20 -3
      vertex -40 -20 27
      vertex -40 20 -3
    endloop
  endfacet
  facet normal -1 0 0
    outer loop
      vertex -40 20 -3
      vertex -40 -20 27
      vertex -40 20 27
    endloop
  endfacet
  facet normal 0 -1 0
    outer loop
      vertex -30 -20 3
      vertex -40 -20 -3
      vertex 35 -20 -3
    endloop
  endfacet
  facet normal 0 -1 0
    outer loop
      vertex -17.9289 -20 47.1421
      vertex -38.0711 -20 27
      vertex -10.8579 -20 40.0711
    endloop
  endfacet
  facet normal 0 -1 0
    outer loop
      vertex -30 -20 20.9289
      vertex -10.8579 -20 40.0711
      vertex -38.0711 -20 27
    endloop
  endfacet
  facet normal 0 -1 0
    outer loop
      vertex -40 -20 27
      vertex -40 -20 -3
      vertex -30 -20 3
    endloop
  endfacet
  facet normal 0 -1 0
    outer loop
      vertex -30 -20 20.9289
      vertex -38.0711 -20 27
      vertex -40 -20 27
    endloop
  endfacet
  facet normal 0 -1 0
    outer loop
      vertex -40 -20 27
      vertex -30 -20 3
      vertex -30 -20 20.9289
    endloop
  endfacet
  facet normal 0 -1 0
    outer loop
      vertex 35 -20 3
      vertex -30 -20 3
      vertex 35 -20 -3
    endloop
  endfacet
  facet normal 0 0 -1
    outer loop
      vertex 3.09017 9.51056 -3
      vertex -40 20 -3
      vertex 35 20 -3
    endloop
  endfacet
  facet normal 0 0 -1
    outer loop
      vertex -40 -20 -3
      vertex -40 20 -3
      vertex -10 0 -3
    endloop
  endfacet
  facet normal 0 0 -1
    outer loop
      vertex -40 -20 -3
      vertex -10 0 -3
      vertex -9.78148 -2.07912 -3
    endloop
  endfacet
  facet normal 0 0 -1
    outer loop
      vertex -40 -20 -3
      vertex -9.78148 -2.07912 -3
      vertex -9.13546 -4.06737 -3
    endloop
  endfacet
  facet normal 0 0 -1
    outer loop
      vertex -40 -20 -3
      vertex -9.13546 -4.06737 -3
      vertex -8.09017 -5.87785 -3
    endloop
  endfacet
  facet normal 0 0 -1
    outer loop
      vertex -40 -20 -3
      vertex -8.09017 -5.87785 -3
      vertex -6.69131 -7.43145 -3
    endloop
  endfacet
  facet normal 0 0 -1
    outer loop
      vertex -40 -20 -3
      vertex -6.69131 -7.43145 -3
      vertex -5 -8.66025 -3
    endloop
  endfacet
  facet normal 0 0 -1
    outer loop
      vertex -40 -20 -3
      vertex -5 -8.66025 -3
      vertex -3.09017 -9.51056 -3
    endloop
  endfacet
  facet normal 0 0 -1
    outer loop
      vertex -40 -20 -3
      vertex -3.09017 -9.51056 -3
      vertex 35 -20 -3
    endloop
  endfacet
  facet normal 0 0 -1
    outer loop
      vertex -3.09017 -9.51056 -3
      vertex -1.04529 -9.94522 -3
      vertex 35 -20 -3
    endloop
  endfacet
  facet normal 0 0 -1
    outer loop
      vertex 3.09017 -9.51056 -3
      vertex 35 -20 -3
      vertex 1.04529 -9.94522 -3
    endloop
  endfacet
  facet normal 0 0 -1
    outer loop
      vertex 5 -8.66025 -3
      vertex 35 -20 -3
      vertex 3.09017 -9.51056 -3
    endloop
  endfacet
  facet normal 0 0 -1
    outer loop
      vertex 6.69131 -7.43145 -3
      vertex 35 -20 -3
      vertex 5 -8.66025 -3
    endloop
  endfacet
  facet normal 0 0 -1
    outer loop
      vertex 8.09017 -5.87785 -3
      vertex 35 -20 -3
      vertex 6.69131 -7.43145 -3
    endloop
  endfacet
  facet normal 0 0 -1
    outer loop
      vertex 8.26264 -5.57912 -3
      vertex 35 -20 -3
      vertex 8.09017 -5.87785 -3
    endloop
  endfacet
  facet normal 0 0 -1
    outer loop
      vertex 8.26264 5.57912 -3
      vertex 35 20 -3
      vertex 25 0 -3
    endloop
  endfacet
  facet normal 0 0 -1
    outer loop
      vertex 35 -20 -3
      vertex 8.26264 -5.57912 -3
      vertex 25 0 -3
    endloop
  endfacet
  facet normal 0 0 -1
    outer loop
      vertex 35 -20 -3
      vertex 25 0 -3
      vertex 35 20 -3
    endloop
  endfacet
  facet normal 0 0 -1
    outer loop
      vertex -9.78148 2.07912 -3
      vertex -40 20 -3
      vertex -9.13546 4.06737 -3
    endloop
  endfacet
  facet normal 0 0 -1
    outer loop
      vertex -1.04529 9.94522 -3
      vertex -40 20 -3
      vertex 1.04529 9.94522 -3
    endloop
  endfacet
  facet normal 0 0 -1
    outer loop
      vertex 8.26264 5.57912 -3
      vertex 8.09017 5.87785 -3
      vertex 35 20 -3
    endloop
  endfacet
  facet normal 0 0 -1
    outer loop
      vertex -5 8.66025 -3
      vertex -40 20 -3
      vertex -3.09017 9.51056 -3
    endloop
  endfacet
  facet normal 0 0 -1
    outer loop
      vertex 8.09017 5.87785 -3
      vertex 6.69131 7.43145 -3
      vertex 35 20 -3
    endloop
  endfacet
  facet normal 0 0 -1
    outer loop
      vertex -3.09017 9.51056 -3
      vertex -40 20 -3
      vertex -1.04529 9.94522 -3
    endloop
  endfacet
  facet normal 0 0 -1
    outer loop
      vertex 6.69131 7.43145 -3
      vertex 5 8.66025 -3
      vertex 35 20 -3
    endloop
  endfacet
  facet normal 0 0 -1
    outer loop
      vertex 1.04529 9.94522 -3
      vertex -40 20 -3
      vertex 3.09017 9.51056 -3
    endloop
  endfacet
  facet normal 0 0 -1
    outer loop
      vertex 5 8.66025 -3
      vertex 3.09017 9.51056 -3
      vertex 35 20 -3
    endloop
  endfacet
  facet normal 0 0 -1
    outer loop
      vertex -6.69131 7.43145 -3
      vertex -40 20 -3
      vertex -5 8.66025 -3
    endloop
  endfacet
  facet normal 0 0 -1
    outer loop
      vertex -8.09017 5.87785 -3
      vertex -40 20 -3
      vertex -6.69131 7.43145 -3
    endloop
  endfacet
  facet normal 0 0 -1
    outer loop
      vertex -9.13546 4.06737 -3
      vertex -40 20 -3
      vertex -8.09017 5.87785 -3
    endloop
  endfacet
  facet normal 0 0 -1
    outer loop
      vertex -10 0 -3
      vertex -40 20 -3
      vertex -9.78148 2.07912 -3
    endloop
  endfacet
  facet normal 0 0 -1
    outer loop
      vertex 1.04529 -9.94522 -3
      vertex 35 -20 -3
      vertex -1.04529 -9.94522 -3
    endloop
  endfacet
  facet normal 0 1 0
    outer loop
      vertex 35 20 3
      vertex 35 20 -3
      vertex -30 20 3
    endloop
  endfacet
  facet normal 0 1 0
    outer loop
      vertex -10.8579 20 40.0711
      vertex -38.0711 20 27
      vertex -17.9289 20 47.1421
    endloop
  endfacet
  facet normal 0 1 0
    outer loop
      vertex -40 20 -3
      vertex -40 20 27
      vertex -30 20 20.9289
    endloop
  endfacet
  facet normal 0 1 0
    outer loop
      vertex -40 20 -3
      vertex -30 20 20.9289
      vertex -30 20 3
    endloop
  endfacet
  facet normal 0 1 0
    outer loop
      vertex -40 20 -3
      vertex -30 20 3
      vertex 35 20 -3
    endloop
  endfacet
  facet normal 0 1 0
    outer loop
      vertex -30 20 20.9289
      vertex -40 20 27
      vertex -38.0711 20 27
    endloop
  endfacet
  facet normal 0 1 0
    outer loop
      vertex -30 20 20.9289
      vertex -38.0711 20 27
      vertex -10.8579 20 40.0711
    endloop
  endfacet
  facet normal 0 0 1
    outer loop
      vertex -40 20 27
      vertex -40 -20 27
      vertex -38.0711 -20 27
    endloop
  endfacet
  facet normal 0 0 1
    outer loop
      vertex -38.0711 20 27
      vertex -40 20 27
      vertex -38.0711 -20 27
    endloop
  endfacet
  facet normal -0.707107 0 0.707107
    outer loop
      vertex -38.0711 20 27
      vertex -38.0711 -20 27
      vertex -17.9289 -20 47.1421
    endloop
  endfacet
  facet normal -0.707107 0 0.707107
    outer loop
      vertex -17.9289 20 47.1421
      vertex -38.0711 20 27
      vertex -17.9289 -20 47.1421
    endloop
  endfacet
  facet normal 0.707107 0 0.707107
    outer loop
      vertex -15.455 -13.4441 44.6682
      vertex -17.9289 -20 47.1421
      vertex -10.8579 -20 40.0711
    endloop
  endfacet
  facet normal 0.707107 0 0.707107
    outer loop
      vertex -15.455 -13.4441 44.6682
      vertex -15.455 13.4441 44.6682
      vertex -17.9289 20 47.1421
    endloop
  endfacet
  facet normal 0.707107 0 0.707107
    outer loop
      vertex -17.9289 20 47.1421
      vertex -17.9289 -20 47.1421
      vertex -15.455 -13.4441 44.6682
    endloop
  endfacet
  facet normal 0.707107 0 0.707107
    outer loop
      vertex -15.1836 13.3875 44.3968
      vertex -17.9289 20 47.1421
      vertex -15.455 13.4441 44.6682
    endloop
  endfacet
  facet normal 0.707107 0 0.707107
    outer loop
      vertex -10.8579 12.4845 40.0711
      vertex -17.9289 20 47.1421
      vertex -15.1836 13.3875 44.3968
    endloop
  endfacet
  facet normal 0.707107 0 0.707107
    outer loop
      vertex -10.8579 20 40.0711
      vertex -17.9289 20 47.1421
      vertex -10.8579 12.4845 40.0711
    endloop
  endfacet
  facet normal 0.707107 0 0.707107
    outer loop
      vertex -10.8579 -12.4845 40.0711
      vertex -15.455 -13.4441 44.6682
      vertex -10.8579 -20 40.0711
    endloop
  endfacet
  facet normal 0.707107 0 -0.707107
    outer loop
      vertex -30 -20 20.9289
      vertex -30 20 20.9289
      vertex -10.8579 -20 40.0711
    endloop
  endfacet
  facet normal 0.707107 0 -0.707107
    outer loop
      vertex -11.9975 14.5515 38.9314
      vertex -30 20 20.9289
      vertex -10.8579 20 40.0711
    endloop
  endfacet
  facet normal 0.707107 0 -0.707107
    outer loop
      vertex -10.8579 12.4845 40.0711
      vertex -11.9975 14.5515 38.9314
      vertex -10.8579 20 40.0711
    endloop
  endfacet
  facet normal 0.707107 0 -0.707107
    outer loop
      vertex -10.8579 -20 40.0711
      vertex -30 20 20.9289
      vertex -11.9975 -14.5515 38.9314
    endloop
  endfacet
  facet normal 0.707107 0 -0.707107
    outer loop
      vertex -10.8579 -20 40.0711
      vertex -11.9975 -14.5515 38.9314
      vertex -10.8579 -12.4845 40.0711
    endloop
  endfacet
  facet normal 0.707107 0 -0.707107
    outer loop
      vertex -11.9975 -14.5515 38.9314
      vertex -30 20 20.9289
      vertex -11.9975 14.5515 38.9314
    endloop
  endfacet
  facet normal 1 0 0
    outer loop
      vertex -30 -20 20.9289
      vertex -30 -20 3
      vertex -30 20 3
    endloop
  endfacet
  facet normal 1 0 0
    outer loop
      vertex -30 20 20.9289
      vertex -30 -20 20.9289
      vertex -30 20 3
    endloop
  endfacet
  facet normal 0 0 1
    outer loop
      vertex 3.09017 -9.51056 3
      vertex -30 -20 3
      vertex 35 -20 3
    endloop
  endfacet
  facet normal 0 0 1
    outer loop
      vertex 1.04529 -9.94522 3
      vertex -1.04529 -9.94522 3
      vertex -30 -20 3
    endloop
  endfacet
  facet normal 0 0 1
    outer loop
      vertex -30 20 3
      vertex -30 -20 3
      vertex -9.78148 -2.07912 3
    endloop
  endfacet
  facet normal 0 0 1
    outer loop
      vertex 6.69131 -7.43145 3
      vertex 5 -8.66025 3
      vertex 35 -20 3
    endloop
  endfacet
  facet normal 0 0 1
    outer loop
      vertex -30 20 3
      vertex -9.78148 -2.07912 3
      vertex -10 0 3
    endloop
  endfacet
  facet normal 0 0 1
    outer loop
      vertex -30 20 3
      vertex -10 0 3
      vertex -9.78148 2.07912 3
    endloop
  endfacet
  facet normal 0 0 1
    outer loop
      vertex -30 20 3
      vertex -9.78148 2.07912 3
      vertex -9.13546 4.06737 3
    endloop
  endfacet
  facet normal 0 0 1
    outer loop
      vertex -1.04529 9.94522 3
      vertex 1.04529 9.94522 3
      vertex 35 20 3
    endloop
  endfacet
  facet normal 0 0 1
    outer loop
      vertex -30 20 3
      vertex -9.13546 4.06737 3
      vertex -8.09017 5.87785 3
    endloop
  endfacet
  facet normal 0 0 1
    outer loop
      vertex -5 8.66025 3
      vertex -30 20 3
      vertex -6.69131 7.43145 3
    endloop
  endfacet
  facet normal 0 0 1
    outer loop
      vertex -3.09017 9.51056 3
      vertex -30 20 3
      vertex -5 8.66025 3
    endloop
  endfacet
  facet normal 0 0 1
    outer loop
      vertex 35 20 3
      vertex -30 20 3
      vertex -3.09017 9.51056 3
    endloop
  endfacet
  facet normal 0 0 1
    outer loop
      vertex 1.04529 9.94522 3
      vertex 3.09017 9.51056 3
      vertex 35 20 3
    endloop
  endfacet
  facet normal 0 0 1
    outer loop
      vertex 35 20 3
      vertex -3.09017 9.51056 3
      vertex -1.04529 9.94522 3
    endloop
  endfacet
  facet normal 0 0 1
    outer loop
      vertex 8.09017 5.87785 3
      vertex 25 0 3
      vertex 6.69131 7.43145 3
    endloop
  endfacet
  facet normal 0 0 1
    outer loop
      vertex 35 20 3
      vertex 3.09017 9.51056 3
      vertex 5 8.66025 3
    endloop
  endfacet
  facet normal 0 0 1
    outer loop
      vertex 35 20 3
      vertex 5 8.66025 3
      vertex 6.69131 7.43145 3
    endloop
  endfacet
  facet normal 0 0 1
    outer loop
      vertex 35 20 3
      vertex 25 0 3
      vertex 35 -20 3
    endloop
  endfacet
  facet normal 0 0 1
    outer loop
      vertex 35 20 3
      vertex 6.69131 7.43145 3
      vertex 25 0 3
    endloop
  endfacet
  facet normal 0 0 1
    outer loop
      vertex 8.26264 -5.57912 3
      vertex 8.09017 -5.87785 3
      vertex 35 -20 3
    endloop
  endfacet
  facet normal 0 0 1
    outer loop
      vertex 5 -8.66025 3
      vertex 3.09017 -9.51056 3
      vertex 35 -20 3
    endloop
  endfacet
  facet normal 0 0 1
    outer loop
      vertex 1.04529 -9.94522 3
      vertex -30 -20 3
      vertex 3.09017 -9.51056 3
    endloop
  endfacet
  facet normal 0 0 1
    outer loop
      vertex -3.09017 -9.51056 3
      vertex -30 -20 3
      vertex -1.04529 -9.94522 3
    endloop
  endfacet
  facet normal 0 0 1
    outer loop
      vertex -5 -8.66025 3
      vertex -30 -20 3
      vertex -3.09017 -9.51056 3
    endloop
  endfacet
  facet normal 0 0 1
    outer loop
      vertex -6.69131 -7.43145 3
      vertex -30 -20 3
      vertex -5 -8.66025 3
    endloop
  endfacet
  facet normal 0 0 1
    outer loop
      vertex -8.09017 -5.87785 3
      vertex -30 -20 3
      vertex -6.69131 -7.43145 3
    endloop
  endfacet
  facet normal 0 0 1
    outer loop
      vertex -9.13546 -4.06737 3
      vertex -30 -20 3
      vertex -8.09017 -5.87785 3
    endloop
  endfacet
  facet normal 0 0 1
    outer loop
      vertex -9.78148 -2.07912 3
      vertex -30 -20 3
      vertex -9.13546 -4.06737 3
    endloop
  endfacet
  facet normal 0 0 1
    outer loop
      vertex 8.09017 -5.87785 3
      vertex 6.69131 -7.43145 3
      vertex 35 -20 3
    endloop
  endfacet
  facet normal 0 0 1
    outer loop
      vertex -8.09017 5.87785 3
      vertex -6.69131 7.43145 3
      vertex -30 20 3
    endloop
  endfacet
  facet normal 0 0 1
    outer loop
      vertex 8.26264 5.57912 3
      vertex 25 0 3
      vertex 8.09017 5.87785 3
    endloop
  endfacet
  facet normal 0 0 1
    outer loop
      vertex 25 0 3
      vertex 8.26264 -5.57912 3
      vertex 35 -20 3
    endloop
  endfacet
  facet normal 1 0 0
    outer loop
      vertex 35 -20 3
      vertex 35 -20 -3
      vertex 35 20 -3
    endloop
  endfacet
  facet normal 1 0 0
    outer loop
      vertex 35 20 3
      vertex 35 -20 3
      vertex 35 20 -3
    endloop
  endfacet
  facet normal 0.994522 -0.104528 0
    outer loop
      vertex -9.78148 2.07912 -3
      vertex -9.78148 2.07912 3
      vertex -10 0 3
    endloop
  endfacet
  facet normal 0.994522 -0.104528 0
    outer loop
      vertex -10 0 -3
      vertex -9.78148 2.07912 -3
      vertex -10 0 3
    endloop
  endfacet
  facet normal 0.994522 0.104528 0
    outer loop
      vertex -10 0 3
      vertex -9.78148 -2.07912 3
      vertex -9.78148 -2.07912 -3
    endloop
  endfacet
  facet normal 0.994522 0.104528 0
    outer loop
      vertex -10 0 -3
      vertex -10 0 3
      vertex -9.78148 -2.07912 -3
    endloop
  endfacet
  facet normal 0.951057 -0.309017 0
    outer loop
      vertex -9.13546 4.06737 -3
      vertex -9.13546 4.06737 3
      vertex -9.78148 2.07912 3
    endloop
  endfacet
  facet normal 0.951057 -0.309017 0
    outer loop
      vertex -9.78148 2.07912 -3
      vertex -9.13546 4.06737 -3
      vertex -9.78148 2.07912 3
    endloop
  endfacet
  facet normal 0.866025 -0.5 0
    outer loop
      vertex -8.09017 5.87785 -3
      vertex -8.09017 5.87785 3
      vertex -9.13546 4.06737 3
    endloop
  endfacet
  facet normal 0.866025 -0.5 0
    outer loop
      vertex -9.13546 4.06737 -3
      vertex -8.09017 5.87785 -3
      vertex -9.13546 4.06737 3
    endloop
  endfacet
  facet normal 0.743145 -0.669131 0
    outer loop
      vertex -6.69131 7.43145 -3
      vertex -6.69131 7.43145 3
      vertex -8.09017 5.87785 3
    endloop
  endfacet
  facet normal 0.743145 -0.669131 0
    outer loop
      vertex -8.09017 5.87785 -3
      vertex -6.69131 7.43145 -3
      vertex -8.09017 5.87785 3
    endloop
  endfacet
  facet normal 0.587785 -0.809017 0
    outer loop
      vertex -5 8.66025 -3
      vertex -5 8.66025 3
      vertex -6.69131 7.43145 3
    endloop
  endfacet
  facet normal 0.587785 -0.809017 0
    outer loop
      vertex -6.69131 7.43145 -3
      vertex -5 8.66025 -3
      vertex -6.69131 7.43145 3
    endloop
  endfacet
  facet normal 0.406737 -0.913545 0
    outer loop
      vertex -3.09017 9.51056 -3
      vertex -3.09017 9.51056 3
      vertex -5 8.66025 3
    endloop
  endfacet
  facet normal 0.406737 -0.913545 0
    outer loop
      vertex -5 8.66025 -3
      vertex -3.09017 9.51056 -3
      vertex -5 8.66025 3
    endloop
  endfacet
  facet normal 0.207912 -0.978148 0
    outer loop
      vertex -1.04529 9.94522 -3
      vertex -1.04529 9.94522 3
      vertex -3.09017 9.51056 3
    endloop
  endfacet
  facet normal 0.207912 -0.978148 0
    outer loop
      vertex -3.09017 9.51056 -3
      vertex -1.04529 9.94522 -3
      vertex -3.09017 9.51056 3
    endloop
  endfacet
  facet normal 0 -1 0
    outer loop
      vertex 1.04529 9.94522 -3
      vertex 1.04529 9.94522 3
      vertex -1.04529 9.94522 3
    endloop
  endfacet
  facet normal 0 -1 0
    outer loop
      vertex -1.04529 9.94522 -3
      vertex 1.04529 9.94522 -3
      vertex -1.04529 9.94522 3
    endloop
  endfacet
  facet normal -0.207912 -0.978148 0
    outer loop
      vertex 3.09017 9.51056 -3
      vertex 3.09017 9.51056 3
      vertex 1.04529 9.94522 3
    endloop
  endfacet
  facet normal -0.207912 -0.978148 0
    outer loop
      vertex 1.04529 9.94522 -3
      vertex 3.09017 9.51056 -3
      vertex 1.04529 9.94522 3
    endloop
  endfacet
  facet normal -0.406737 -0.913545 0
    outer loop
      vertex 5 8.66025 -3
      vertex 5 8.66025 3
      vertex 3.09017 9.51056 3
    endloop
  endfacet
  facet normal -0.406737 -0.913545 0
    outer loop
      vertex 3.09017 9.51056 -3
      vertex 5 8.66025 -3
      vertex 3.09017 9.51056 3
    endloop
  endfacet
  facet normal -0.587785 -0.809017 0
    outer loop
      vertex 6.69131 7.43145 -3
      vertex 6.69131 7.43145 3
      vertex 5 8.66025 3
    endloop
  endfacet
  facet normal -0.587785 -0.809017 0
    outer loop
      vertex 5 8.66025 -3
      vertex 6.69131 7.43145 -3
      vertex 5 8.66025 3
    endloop
  endfacet
  facet normal -0.743145 -0.669131 0
    outer loop
      vertex 8.09017 5.87785 3
      vertex 6.69131 7.43145 3
      vertex 8.09017 5.87785 -3
    endloop
  endfacet
  facet normal -0.743145 -0.669131 0
    outer loop
      vertex 8.09017 5.87785 -3
      vertex 6.69131 7.43145 3
      vertex 6.69131 7.43145 -3
    endloop
  endfacet
  facet normal -0.866025 -0.5 0
    outer loop
      vertex 8.26264 5.57912 3
      vertex 8.09017 5.87785 3
      vertex 8.26264 5.57912 -3
    endloop
  endfacet
  facet normal -0.866025 -0.5 0
    outer loop
      vertex 8.26264 5.57912 -3
      vertex 8.09017 5.87785 3
      vertex 8.09017 5.87785 -3
    endloop
  endfacet
  facet normal -0.316228 -0.948683 0
    outer loop
      vertex 25 0 -3
      vertex 25 0 3
      vertex 8.26264 5.57912 3
    endloop
  endfacet
  facet normal -0.316228 -0.948683 0
    outer loop
      vertex 8.26264 5.57912 -3
      vertex 25 0 -3
      vertex 8.26264 5.57912 3
    endloop
  endfacet
  facet normal -0.316228 0.948683 0
    outer loop
      vertex 25 0 3
      vertex 25 0 -3
      vertex 8.26264 -5.57912 3
    endloop
  endfacet
  facet normal -0.316228 0.948683 0
    outer loop
      vertex 8.26264 -5.57912 3
      vertex 25 0 -3
      vertex 8.26264 -5.57912 -3
    endloop
  endfacet
  facet normal -0.866025 0.5 0
    outer loop
      vertex 8.26264 -5.57912 3
      vertex 8.26264 -5.57912 -3
      vertex 8.09017 -5.87785 3
    endloop
  endfacet
  facet normal -0.866025 0.5 0
    outer loop
      vertex 8.09017 -5.87785 3
      vertex 8.26264 -5.57912 -3
      vertex 8.09017 -5.87785 -3
    endloop
  endfacet
  facet normal -0.743145 0.669131 0
    outer loop
      vertex 8.09017 -5.87785 3
      vertex 8.09017 -5.87785 -3
      vertex 6.69131 -7.43145 3
    endloop
  endfacet
  facet normal -0.743145 0.669131 0
    outer loop
      vertex 6.69131 -7.43145 3
      vertex 8.09017 -5.87785 -3
      vertex 6.69131 -7.43145 -3
    endloop
  endfacet
  facet normal -0.587785 0.809017 0
    outer loop
      vertex 6.69131 -7.43145 3
      vertex 6.69131 -7.43145 -3
      vertex 5 -8.66025 3
    endloop
  endfacet
  facet normal -0.587785 0.809017 0
    outer loop
      vertex 5 -8.66025 3
      vertex 6.69131 -7.43145 -3
      vertex 5 -8.66025 -3
    endloop
  endfacet
  facet normal -0.406737 0.913545 0
    outer loop
      vertex 5 -8.66025 3
      vertex 5 -8.66025 -3
      vertex 3.09017 -9.51056 3
    endloop
  endfacet
  facet normal -0.406737 0.913545 0
    outer loop
      vertex 3.09017 -9.51056 3
      vertex 5 -8.66025 -3
      vertex 3.09017 -9.51056 -3
    endloop
  endfacet
  facet normal -0.207912 0.978148 0
    outer loop
      vertex 3.09017 -9.51056 3
      vertex 3.09017 -9.51056 -3
      vertex 1.04529 -9.94522 3
    endloop
  endfacet
  facet normal -0.207912 0.978148 0
    outer loop
      vertex 1.04529 -9.94522 3
      vertex 3.09017 -9.51056 -3
      vertex 1.04529 -9.94522 -3
    endloop
  endfacet
  facet normal 0 1 0
    outer loop
      vertex 1.04529 -9.94522 3
      vertex 1.04529 -9.94522 -3
      vertex -1.04529 -9.94522 3
    endloop
  endfacet
  facet normal 0 1 0
    outer loop
      vertex -1.04529 -9.94522 3
      vertex 1.04529 -9.94522 -3
      vertex -1.04529 -9.94522 -3
    endloop
  endfacet
  facet normal 0.207912 0.978148 0
    outer loop
      vertex -1.04529 -9.94522 3
      vertex -1.04529 -9.94522 -3
      vertex -3.09017 -9.51056 3
    endloop
  endfacet
  facet normal 0.207912 0.978148 0
    outer loop
      vertex -3.09017 -9.51056 3
      vertex -1.04529 -9.94522 -3
      vertex -3.09017 -9.51056 -3
    endloop
  endfacet
  facet normal 0.406737 0.913545 0
    outer loop
      vertex -3.09017 -9.51056 3
      vertex -3.09017 -9.51056 -3
      vertex -5 -8.66025 3
    endloop
  endfacet
  facet normal 0.406737 0.913545 0
    outer loop
      vertex -5 -8.66025 3
      vertex -3.09017 -9.51056 -3
      vertex -5 -8.66025 -3
    endloop
  endfacet
  facet normal 0.587785 0.809017 0
    outer loop
      vertex -5 -8.66025 3
      vertex -5 -8.66025 -3
      vertex -6.69131 -7.43145 3
    endloop
  endfacet
  facet normal 0.587785 0.809017 0
    outer loop
      vertex -6.69131 -7.43145 3
      vertex -5 -8.66025 -3
      vertex -6.69131 -7.43145 -3
    endloop
  endfacet
  facet normal 0.743145 0.669131 0
    outer loop
      vertex -8.09017 -5.87785 3
      vertex -6.69131 -7.43145 3
      vertex -6.69131 -7.43145 -3
    endloop
  endfacet
  facet normal 0.743145 0.669131 0
    outer loop
      vertex -8.09017 -5.87785 -3
      vertex -8.09017 -5.87785 3
      vertex -6.69131 -7.43145 -3
    endloop
  endfacet
  facet normal 0.866025 0.5 0
    outer loop
      vertex -9.13546 -4.06737 3
      vertex -8.09017 -5.87785 3
      vertex -8.09017 -5.87785 -3
    endloop
  endfacet
  facet normal 0.866025 0.5 0
    outer loop
      vertex -9.13546 -4.06737 -3
      vertex -9.13546 -4.06737 3
      vertex -8.09017 -5.87785 -3
    endloop
  endfacet
  facet normal 0.951057 0.309017 0
    outer loop
      vertex -9.78148 -2.07912 3
      vertex -9.13546 -4.06737 3
      vertex -9.13546 -4.06737 -3
    endloop
  endfacet
  facet normal 0.951057 0.309017 0
    outer loop
      vertex -9.78148 -2.07912 -3
      vertex -9.78148 -2.07912 3
      vertex -9.13546 -4.06737 -3
    endloop
  endfacet
  facet normal 0.619264 0.612372 0.491438
    outer loop
      vertex -10.8579 12.4845 40.0711
      vertex -15.1836 13.3875 44.3968
      vertex -4.44489 0 47.5468
    endloop
  endfacet
  facet normal 0.619264 0.612372 0.491438
    outer loop
      vertex -11.9975 14.5515 38.9314
      vertex -10.8579 12.4845 40.0711
      vertex 10.8451 0 28.2798
    endloop
  endfacet
  facet normal 0.619264 0.612372 0.491438
    outer loop
      vertex 10.8451 0 28.2798
      vertex -10.8579 12.4845 40.0711
      vertex -4.44489 0 47.5468
    endloop
  endfacet
  facet normal 0.619264 0.612372 0.491438
    outer loop
      vertex -15.1836 13.3875 44.3968
      vertex -15.455 13.4441 44.6682
      vertex -5.80435 0.866025 48.1807
    endloop
  endfacet
  facet normal 0.619264 0.612372 0.491438
    outer loop
      vertex -4.44489 0 47.5468
      vertex -15.1836 13.3875 44.3968
      vertex -5.80435 0.866025 48.1807
    endloop
  endfacet
  facet normal -0.34202 0 0.939693
    outer loop
      vertex -15.455 13.4441 44.6682
      vertex -15.455 -13.4441 44.6682
      vertex -5.80435 -0.866025 48.1807
    endloop
  endfacet
  facet normal -0.34202 0 0.939693
    outer loop
      vertex -5.80435 0.866025 48.1807
      vertex -15.455 13.4441 44.6682
      vertex -5.80435 -0.866025 48.1807
    endloop
  endfacet
  facet normal 0.619264 -0.612372 0.491438
    outer loop
      vertex -5.80435 -0.866025 48.1807
      vertex -15.455 -13.4441 44.6682
      vertex -10.8579 -12.4845 40.0711
    endloop
  endfacet
  facet normal 0.619264 -0.612372 0.491438
    outer loop
      vertex 10.8451 0 28.2798
      vertex -5.80435 -0.866025 48.1807
      vertex -10.8579 -12.4845 40.0711
    endloop
  endfacet
  facet normal 0.619264 -0.612372 0.491438
    outer loop
      vertex -11.9975 -14.5515 38.9314
      vertex 10.8451 0 28.2798
      vertex -10.8579 -12.4845 40.0711
    endloop
  endfacet
  facet normal -0.422618 0 -0.906308
    outer loop
      vertex 10.8451 0 28.2798
      vertex -11.9975 -14.5515 38.9314
      vertex -11.9975 14.5515 38.9314
    endloop
  endfacet
  facet normal 0.619264 -0.612373 0.491438
    outer loop
      vertex -4.44489 0 47.5468
      vertex -5.80435 -0.866025 48.1807
      vertex 10.8451 0 28.2798
    endloop
  endfacet
  facet normal 0.422618 0 0.906308
    outer loop
      vertex -5.80435 0.866025 48.1807
      vertex -5.80435 -0.866025 48.1807
      vertex -4.44489 0 47.5468
    endloop
  endfacet
endsolid OpenSCAD_Model
